<?xml version="1.0" encoding="UTF-8"?>
<svg id="Layer_1" data-name="Layer 1" xmlns="http://www.w3.org/2000/svg" xmlns:xlink="http://www.w3.org/1999/xlink" viewBox="0 0 72 72">
  <defs>
    <style>
      .cls-1, .cls-2 {
        fill: none;
      }

      .cls-3 {
        clip-path: url(#clippath-1);
      }

      .cls-4 {
        fill: url(#Pattern-ZigZag-Firewood);
      }

      .cls-2 {
        stroke: #4e1909;
        stroke-linecap: round;
        stroke-miterlimit: 10;
        stroke-width: 4.41px;
      }

      .cls-5 {
        fill: #532111;
      }

      .cls-6 {
        clip-path: url(#clippath);
      }
    </style>
    <clipPath id="clippath">
      <rect class="cls-5" x="0" y="0" width="72" height="72"/>
    </clipPath>
    <pattern id="Pattern-ZigZag-Firewood" x="0" y="0" width="72" height="72" patternTransform="translate(-132 -144)" patternUnits="userSpaceOnUse" viewBox="0 0 72 72">
      <g>
        <rect class="cls-1" width="72" height="72"/>
        <g>
          <rect class="cls-5" x="0" y="0" width="72" height="72"/>
          <g class="cls-6">
            <g>
              <polyline class="cls-2" points="-27.32 -4.18 -18.29 4.29 -9.27 -4.18 -.24 4.29 8.78 -4.18 17.81 4.29 26.84 -4.18 35.86 4.29 44.88 -4.18 53.91 4.29 62.93 -4.18 71.96 4.29 80.99 -4.18 90.02 4.29 99.05 -4.18 108.08 4.29"/>
              <polyline class="cls-2" points="-27.32 7.82 -18.29 16.29 -9.27 7.82 -.24 16.29 8.78 7.82 17.81 16.29 26.84 7.82 35.86 16.29 44.88 7.82 53.91 16.29 62.93 7.82 71.96 16.29 80.99 7.82 90.02 16.29 99.05 7.82 108.08 16.29"/>
              <polyline class="cls-2" points="-27.32 19.82 -18.29 28.29 -9.27 19.82 -.24 28.29 8.78 19.82 17.81 28.29 26.84 19.82 35.86 28.29 44.88 19.82 53.91 28.29 62.93 19.82 71.96 28.29 80.99 19.82 90.02 28.29 99.05 19.82 108.08 28.29"/>
              <polyline class="cls-2" points="-27.32 31.82 -18.29 40.29 -9.27 31.82 -.24 40.29 8.78 31.82 17.81 40.29 26.84 31.82 35.86 40.29 44.88 31.82 53.91 40.29 62.93 31.82 71.96 40.29 80.99 31.82 90.02 40.29 99.05 31.82 108.08 40.29"/>
              <polyline class="cls-2" points="-27.32 43.82 -18.29 52.29 -9.27 43.82 -.24 52.29 8.78 43.82 17.81 52.29 26.84 43.82 35.86 52.29 44.88 43.82 53.91 52.29 62.93 43.82 71.96 52.29 80.99 43.82 90.02 52.29 99.05 43.82 108.08 52.29"/>
              <polyline class="cls-2" points="-27.32 55.82 -18.29 64.29 -9.27 55.82 -.24 64.29 8.78 55.82 17.81 64.29 26.84 55.82 35.86 64.29 44.88 55.82 53.91 64.29 62.93 55.82 71.96 64.29 80.99 55.82 90.02 64.29 99.05 55.82 108.08 64.29"/>
              <polyline class="cls-2" points="-27.32 67.82 -18.29 76.29 -9.27 67.82 -.24 76.29 8.78 67.82 17.81 76.29 26.84 67.82 35.86 76.29 44.88 67.82 53.91 76.29 62.93 67.82 71.96 76.29 80.99 67.82 90.02 76.29 99.05 67.82 108.08 76.29"/>
            </g>
          </g>
        </g>
      </g>
    </pattern>
    <clipPath id="clippath-1">
      <rect class="cls-4" x="0" width="72" height="72"/>
    </clipPath>
  </defs>
  <rect class="cls-4" x="0" y="0" width="72" height="72"/>
  <g>
    <rect class="cls-4" x="0" width="72" height="72"/>
    <g class="cls-3">
      <g>
        <polyline class="cls-4" points="-27.32 -4.18 -18.29 4.29 -9.27 -4.18 -.24 4.29 8.78 -4.18 17.81 4.29 26.84 -4.18 35.86 4.29 44.88 -4.18 53.91 4.29 62.93 -4.18 71.96 4.29 80.99 -4.18 90.02 4.29 99.05 -4.18 108.08 4.29"/>
        <polyline class="cls-4" points="-27.32 7.82 -18.29 16.29 -9.27 7.82 -.24 16.29 8.78 7.82 17.81 16.29 26.84 7.82 35.86 16.29 44.88 7.82 53.91 16.29 62.93 7.82 71.96 16.29 80.99 7.82 90.02 16.29 99.05 7.82 108.08 16.29"/>
        <polyline class="cls-4" points="-27.32 19.82 -18.29 28.29 -9.27 19.82 -.24 28.29 8.78 19.82 17.81 28.29 26.84 19.82 35.86 28.29 44.88 19.82 53.91 28.29 62.93 19.82 71.96 28.29 80.99 19.82 90.02 28.29 99.05 19.82 108.08 28.29"/>
        <polyline class="cls-4" points="-27.32 31.82 -18.29 40.29 -9.27 31.82 -.24 40.29 8.78 31.82 17.81 40.29 26.84 31.82 35.86 40.29 44.88 31.82 53.91 40.29 62.93 31.82 71.96 40.29 80.99 31.82 90.02 40.29 99.05 31.82 108.08 40.29"/>
        <polyline class="cls-4" points="-27.32 43.82 -18.29 52.29 -9.27 43.82 -.24 52.29 8.78 43.82 17.81 52.29 26.84 43.82 35.86 52.29 44.88 43.82 53.91 52.29 62.93 43.82 71.96 52.29 80.99 43.82 90.02 52.29 99.05 43.82 108.08 52.29"/>
        <polyline class="cls-4" points="-27.32 55.82 -18.29 64.29 -9.27 55.82 -.24 64.29 8.78 55.82 17.81 64.29 26.84 55.82 35.86 64.29 44.88 55.82 53.91 64.29 62.93 55.82 71.96 64.29 80.99 55.82 90.02 64.29 99.05 55.82 108.08 64.29"/>
        <polyline class="cls-4" points="-27.32 67.82 -18.29 76.29 -9.27 67.82 -.24 76.29 8.78 67.82 17.81 76.29 26.84 67.82 35.86 76.29 44.88 67.82 53.91 76.29 62.93 67.82 71.96 76.29 80.99 67.82 90.02 76.29 99.05 67.82 108.08 76.29"/>
      </g>
    </g>
  </g>
</svg>